<svg height="100px" viewBox="0 0 60 60" width="100px" xmlns="http://www.w3.org/2000/svg"><g id="Page-1" fill="none" fill-rule="evenodd"><g id="042---Big-Data" fill="rgb(0,0,0)" fill-rule="nonzero"><path id="Shape" d="m57 42h-9v-1c0-1.6568542-1.3431458-3-3-3h-14v-3h15.248c6.5732374-.094909 11.8298633-5.4915386 11.752-12.065.0689921-5.5723516-3.7218636-10.4530058-9.138-11.765-1.2436208-6.40987937-6.8093453-11.07093373-13.338-11.17-4.4143603.00372632-8.5450098 2.17653244-11.049 5.812-.7420238-.15729204-1.4984883-.23639067-2.257-.236-5.2464181.07721731-9.7464051 3.76268015-10.856 8.891-5.42876216.4888486-9.53429063 5.1266141-9.36103165 10.5745874.17325897 5.4479733 4.56517789 9.815499 10.01403165 9.9584126h16.985v3h-14c-1.6568542 0-3 1.3431458-3 3v1h-9c-1.65685425 0-3 1.3431458-3 3v2c.00525139 1.2667854.80564914 2.3937454 2 2.816v2.368c-1.19435086.4222546-1.99474861 1.5492146-2 2.816v2c0 1.6568542 1.34314575 3 3 3h20c1.6568542 0 3-1.3431458 3-3v-2c-.0052514-1.2667854-.8056491-2.3937454-2-2.816v-2.368c1.1943509-.4222546 1.9947486-1.5492146 2-2.816v-2c0-1.6568542-1.3431458-3-3-3h-9v-1c0-.5522847.4477153-1 1-1h30c.5522847 0 1 .4477153 1 1v1h-9c-1.6568542 0-3 1.3431458-3 3v2c.0052514 1.2667854.8056491 2.3937454 2 2.816v2.368c-1.1943509.4222546-1.9947486 1.5492146-2 2.816v2c0 1.6568542 1.3431458 3 3 3h20c1.6568542 0 3-1.3431458 3-3v-2c-.0052514-1.2667854-.8056491-2.3937454-2-2.816v-2.368c1.1943509-.4222546 1.9947486-1.5492146 2-2.816v-2c0-1.6568542-1.3431458-3-3-3zm-44.985-9c-4.46533072-.1472598-8.00902061-3.8097417-8.00902061-8.2775s3.54368989-8.1302402 8.00902061-8.2775h.167c.507309.0218831.94581-.3507991 1.006-.855.6236497-4.5320014 4.456024-7.93402934 9.03-8.016.8211211-.00090321 1.6383459.11286202 2.428.338.4287026.12181539.886274-.05476966 1.122-.433 2.0805041-3.39595736 5.7734203-5.46991057 9.756-5.479 5.8048135.10422676 10.6726315 4.41280329 11.481 10.162.0633129.4287635.3956204.7679352.823.84 4.7885276.8636743 8.2473055 5.0677909 8.172 9.933.0785259 5.4691805-4.2830677 9.9707636-9.752 10.065h-15.248v-3h7c1.6568542 0 3-1.3431458 3-3v-1.142c1.9503067-.503567 3.2219252-2.3787867 2.9681188-4.3770005s-1.9538507-3.4959828-3.9681188-3.4959828-3.7143124 1.497769-3.9681188 3.4959828 1.0178121 3.8734335 2.9681188 4.3770005v1.142c0 .5522847-.4477153 1-1 1h-7v-9.142c1.9503067-.503567 3.2219252-2.3787867 2.9681188-4.3770005s-1.9538507-3.4959828-3.9681188-3.4959828-3.7143124 1.497769-3.9681188 3.4959828 1.0178121 3.8734335 2.9681188 4.3770005v9.142h-7c-.5522847 0-1-.4477153-1-1v-1.142c1.9503067-.503567 3.2219252-2.3787867 2.9681188-4.3770005s-1.9538507-3.4959828-3.9681188-3.4959828-3.7143124 1.497769-3.9681188 3.4959828 1.0178121 3.8734335 2.9681188 4.3770005v1.142c0 1.6568542 1.3431458 3 3 3h7v3zm27.985-9c-1.1045695 0-2-.8954305-2-2s.8954305-2 2-2 2 .8954305 2 2-.8954305 2-2 2zm-10-7c-1.1045695 0-2-.8954305-2-2s.8954305-2 2-2 2 .8954305 2 2-.8954305 2-2 2zm-10 7c-1.1045695 0-2-.8954305-2-2s.8954305-2 2-2 2 .8954305 2 2-.8954305 2-2 2zm2 26v2h-18v-2zm2 7c0 .5522847-.4477153 1-1 1h-13v-1c0-.5522847-.44771525-1-1-1s-1 .4477153-1 1v1h-2v-1c0-.5522847-.44771525-1-1-1s-1 .4477153-1 1v1h-1c-.55228475 0-1-.4477153-1-1v-2c0-.5522847.44771525-1 1-1h20c.5522847 0 1 .4477153 1 1zm0-12v2c0 .5522847-.4477153 1-1 1h-13v-1c0-.5522847-.44771525-1-1-1s-1 .4477153-1 1v1h-2v-1c0-.5522847-.44771525-1-1-1s-1 .4477153-1 1v1h-1c-.55228475 0-1-.4477153-1-1v-2c0-.5522847.44771525-1 1-1h20c.5522847 0 1 .4477153 1 1zm32 5v2h-18v-2zm2 7c0 .5522847-.4477153 1-1 1h-13v-1c0-.5522847-.4477153-1-1-1s-1 .4477153-1 1v1h-2v-1c0-.5522847-.4477153-1-1-1s-1 .4477153-1 1v1h-1c-.5522847 0-1-.4477153-1-1v-2c0-.5522847.4477153-1 1-1h20c.5522847 0 1 .4477153 1 1zm0-10c0 .5522847-.4477153 1-1 1h-13v-1c0-.5522847-.4477153-1-1-1s-1 .4477153-1 1v1h-2v-1c0-.5522847-.4477153-1-1-1s-1 .4477153-1 1v1h-1c-.5522847 0-1-.4477153-1-1v-2c0-.5522847.4477153-1 1-1h20c.5522847 0 1 .4477153 1 1z"/></g></g></svg>