<svg height="40px" fill="#fff" viewBox="-27 -21 681 681.33365" width="40px" xmlns="http://www.w3.org/2000/svg"><path d="m607.644531.203125h-194.726562c-10.332031 0-18.714844 8.378906-18.714844 18.714844v301.257812c0 10.332031 8.382813 18.710938 18.714844 18.710938h194.726562c10.335938 0 18.710938-8.378907 18.710938-18.710938v-301.257812c0-10.335938-8.375-18.714844-18.710938-18.714844zm-18.714843 301.257813h-157.300782v-263.828126h157.300782zm0 0"/><path d="m468.152344 274.109375h84.257812c10.332032 0 18.714844-8.378906 18.714844-18.714844 0-10.335937-8.382812-18.714843-18.714844-18.714843h-84.257812c-10.335938 0-18.714844 8.378906-18.714844 18.714843 0 10.335938 8.378906 18.714844 18.714844 18.714844zm0 0"/><path d="m468.152344 188.261719h84.257812c10.332032 0 18.714844-8.382813 18.714844-18.714844 0-10.335937-8.382812-18.714844-18.714844-18.714844h-84.257812c-10.335938 0-18.714844 8.378907-18.714844 18.714844 0 10.332031 8.378906 18.714844 18.714844 18.714844zm0 0"/><path d="m468.152344 102.414062h84.257812c10.332032 0 18.714844-8.378906 18.714844-18.714843 0-10.335938-8.382812-18.714844-18.714844-18.714844h-84.257812c-10.335938 0-18.714844 8.378906-18.714844 18.714844 0 10.335937 8.378906 18.714843 18.714844 18.714843zm0 0"/><path d="m213.191406 296.734375h-194.726562c-10.335938 0-18.714844 8.378906-18.714844 18.714844v301.25c0 10.335937 8.378906 18.714843 18.714844 18.714843h194.726562c10.332032 0 18.710938-8.378906 18.710938-18.714843v-301.25c0-10.335938-8.378906-18.714844-18.710938-18.714844zm-18.714844 301.25h-157.296874v-263.824219h157.296874zm0 0"/><path d="m73.699219 570.636719h84.257812c10.332031 0 18.714844-8.382813 18.714844-18.714844 0-10.335937-8.382813-18.710937-18.714844-18.710937h-84.257812c-10.335938 0-18.714844 8.375-18.714844 18.710937 0 10.332031 8.378906 18.714844 18.714844 18.714844zm0 0"/><path d="m73.699219 484.789062h84.257812c10.332031 0 18.714844-8.382812 18.714844-18.714843 0-10.335938-8.382813-18.710938-18.714844-18.710938h-84.257812c-10.335938 0-18.714844 8.375-18.714844 18.710938 0 10.332031 8.378906 18.714843 18.714844 18.714843zm0 0"/><path d="m73.699219 398.941406h84.257812c10.332031 0 18.714844-8.382812 18.714844-18.714844 0-10.335937-8.382813-18.710937-18.714844-18.710937h-84.257812c-10.335938 0-18.714844 8.375-18.714844 18.710937 0 10.332032 8.378906 18.714844 18.714844 18.714844zm0 0"/><path d="m550.832031 364.714844c-10.097656-2.210938-20.074219 4.183594-22.285156 14.28125-10.597656 48.40625-37.675781 92.46875-76.257813 124.074218-26.074218 21.347657-56.726562 36.363282-89.265624 44.097657l10.246093-10.246094c7.308594-7.308594 7.308594-19.15625 0-26.464844-7.304687-7.304687-19.15625-7.304687-26.464843 0l-48.214844 48.214844c-3.507813 3.511719-5.480469 8.269531-5.480469 13.230469 0 4.96875 1.972656 9.730468 5.480469 13.238281l48.214844 48.210937c3.65625 3.65625 8.441406 5.480469 13.234374 5.480469 4.789063 0 9.578126-1.824219 13.230469-5.480469 7.308594-7.308593 7.308594-19.15625 0-26.460937l-19.683593-19.691406c44.714843-7.324219 87.152343-26.292969 122.414062-55.179688 45.070312-36.914062 76.71875-88.417969 89.109375-145.023437 2.207031-10.097656-4.1875-20.070313-14.277344-22.28125zm0 0"/><path d="m330.535156 67.011719c0-4.964844-1.96875-9.726563-5.484375-13.234375l-48.214843-48.210938c-7.304688-7.3125-19.15625-7.3125-26.460938 0-7.3125 7.304688-7.3125 19.152344 0 26.460938l19.65625 19.664062c-99.863281 16.296875-182.949219 90.082032-209.101562 190.226563-2.613282 10 3.382812 20.226562 13.382812 22.835937 1.582031.417969 3.171875.609375 4.738281.609375 8.308594 0 15.898438-5.574219 18.09375-13.984375 21.011719-80.484375 85.011719-141.070312 163.527344-159.683594l-10.296875 10.296876c-7.3125 7.304687-7.3125 19.15625 0 26.460937 3.652344 3.65625 8.4375 5.484375 13.230469 5.484375 4.785156 0 9.582031-1.828125 13.230469-5.476562l48.214843-48.21875c3.515625-3.507813 5.484375-8.269532 5.484375-13.230469zm0 0"/></svg>