<?xml version="1.0" encoding="iso-8859-1"?>
<!-- Generator: Adobe Illustrator 19.0.0, SVG Export Plug-In . SVG Version: 6.00 Build 0)  -->
<svg version="1.1" id="Capa_1" xmlns="http://www.w3.org/2000/svg" xmlns:xlink="http://www.w3.org/1999/xlink" x="0px" y="0px"
	 viewBox="0 0 480.032 480.032" height="50px" width="50px" style="enable-background:new 0 0 480.032 480.032;" xml:space="preserve">
<g>
	<g>
		<path d="M217.92,104.016l-25.888-12.944V72.016h-16v19.056l-24,12l-24-12V72.016h-16v19.056l-27.576,13.784
			c-2.712,1.355-4.425,4.128-4.424,7.16v32h-16v16h22.112l25.888,12.944v19.056h16V172.96l24-12l24,12v19.056h16V172.96
			l27.576-13.744c2.725-1.362,4.441-4.153,4.424-7.2v-32h16v-16H217.92z M144.032,147.072l-24,12l-24-12V116.96l24-12l24,12V147.072
			z M208.032,147.072l-24,12l-24-12V116.96l24-12l24,12V147.072z"/>
	</g>
</g>
<g>
	<g>
		<rect x="224.032" y="72.016" width="16" height="16"/>
	</g>
</g>
<g>
	<g>
		<rect x="64.032" y="176.016" width="16" height="16"/>
	</g>
</g>
<g>
	<g>
		<rect x="352.032" y="248.016" width="16" height="16"/>
	</g>
</g>
<g>
	<g>
		<rect x="320.032" y="248.016" width="16" height="16"/>
	</g>
</g>
<g>
	<g>
		<rect x="384.032" y="248.016" width="16" height="16"/>
	</g>
</g>
<g>
	<g>
		<rect x="352.032" y="184.016" width="16" height="16"/>
	</g>
</g>
<g>
	<g>
		<rect x="320.032" y="184.016" width="16" height="16"/>
	</g>
</g>
<g>
	<g>
		<rect x="384.032" y="184.016" width="16" height="16"/>
	</g>
</g>
<g>
	<g>
		<rect x="352.032" y="312.016" width="16" height="16"/>
	</g>
</g>
<g>
	<g>
		<rect x="320.032" y="312.016" width="16" height="16"/>
	</g>
</g>
<g>
	<g>
		<rect x="384.032" y="312.016" width="16" height="16"/>
	</g>
</g>
<g>
	<g>
		<rect x="352.032" y="376.016" width="16" height="16"/>
	</g>
</g>
<g>
	<g>
		<rect x="320.032" y="376.016" width="16" height="16"/>
	</g>
</g>
<g>
	<g>
		<rect x="384.032" y="376.016" width="16" height="16"/>
	</g>
</g>
<g>
	<g>
		<path d="M360.032,72.016c-18.796-0.055-37.552,1.732-56,5.336V40.016c0-4.418-3.582-8-8-8h-240c-0.152,0-0.296,0.08-0.448,0.088
			c-0.734,0.04-1.459,0.186-2.152,0.432c-0.237,0.069-0.469,0.152-0.696,0.248c-0.876,0.388-1.675,0.93-2.36,1.6l-48,48
			c-0.671,0.678-1.213,1.472-1.6,2.344C0.664,84.976,0.6,85.224,0.512,85.48c-0.231,0.663-0.368,1.355-0.408,2.056
			C0.104,87.712,0,87.864,0,88.04v351.976c0,4.418,3.582,8,8,8h288.032c4.418,0,8-3.582,8-8V418.68
			c18.448,3.604,37.204,5.391,56,5.336c13.974,0.001,27.93-0.975,41.768-2.92l15.576,23.36c1.484,2.225,3.982,3.56,6.656,3.56h32
			c4.418,0,8-3.582,8-8v-39.144c9.199-5.041,15.22-14.396,16-24.856v-256C480.032,88.816,418.2,72.016,360.032,72.016z
			 M48.032,59.328v20.688H27.344L48.032,59.328z M288.032,432.016h-272v-336h40c4.418,0,8-3.582,8-8v-40h224V432.016z
			 M304.08,93.568c18.406-3.797,37.159-5.658,55.952-5.552c63.488,0,104,18.952,104,32c0,13.048-40.512,32-104,32
			c-5.304,0-10.544-0.16-15.712-0.424c-1.72-0.088-3.384-0.256-5.08-0.376c-3.416-0.232-6.824-0.488-10.152-0.8
			c-1.944-0.208-3.832-0.48-5.736-0.72c-3-0.384-5.976-0.8-8.872-1.272c-1.912-0.32-3.76-0.68-5.6-1.032
			c-1.6-0.32-3.2-0.672-4.8-1.024V93.568z M304.032,162.808c1,0.2,2.072,0.336,3.088,0.528c1.776,0.328,3.584,0.624,5.4,0.92
			c3.2,0.52,6.4,0.984,9.744,1.4c1.88,0.232,3.744,0.472,5.648,0.664c3.552,0.376,7.152,0.656,10.792,0.904
			c1.696,0.112,3.368,0.264,5.08,0.352c5.36,0.272,10.768,0.44,16.248,0.44c3.2,0,6.472-0.072,9.72-0.176
			c0.872,0,1.736-0.056,2.6-0.096c2.853-0.112,5.704-0.264,8.552-0.456l1.264-0.08c3.2-0.232,6.4-0.528,9.6-0.864l2.4-0.264
			c2.64-0.304,5.256-0.64,7.848-1.008l1.872-0.256c3.072-0.464,6.099-0.976,9.08-1.536l2.04-0.4c2.448-0.48,4.864-0.992,7.2-1.544
			c0.688-0.152,1.376-0.304,2.056-0.472c2.84-0.68,5.6-1.408,8.328-2.192c0.496-0.144,0.968-0.296,1.456-0.448
			c2.256-0.672,4.456-1.384,6.592-2.12c0.672-0.24,1.344-0.464,2.008-0.712c2.488-0.896,4.904-1.84,7.2-2.832
			c0.264-0.12,0.504-0.248,0.8-0.36c2.04-0.904,4-1.856,5.84-2.832l1.728-0.928c1.88-1.048,3.688-2.12,5.368-3.248
			c0.136-0.096,0.296-0.184,0.44-0.28l0.008-0.032v39.136c0,13.048-40.512,32-104,32c-18.815,0.08-37.586-1.827-56-5.688V162.808z
			 M464.032,208.88v39.136c0,13.048-40.512,32-104,32c-5.304,0-10.544-0.16-15.712-0.424c-1.72-0.088-3.384-0.256-5.08-0.376
			c-3.416-0.232-6.824-0.488-10.152-0.8c-1.944-0.208-3.832-0.48-5.736-0.72c-3-0.384-5.976-0.8-8.872-1.272
			c-1.912-0.32-3.76-0.68-5.6-1.032c-1.6-0.32-3.2-0.672-4.8-1.024v-47.52c18.439,3.53,37.178,5.261,55.952,5.168
			C400.096,232.016,441.888,224.016,464.032,208.88z M448.032,432.016h-19.72l-9.328-13.992c9.925-2.041,19.647-4.97,29.048-8.752
			V432.016z M464.032,376.016c0,13.048-40.512,32-104,32c-18.809,0.109-37.578-1.752-56-5.552V354.68
			c18.448,3.604,37.204,5.391,56,5.336c40.072,0,81.864-8,104-23.144V376.016z M464.032,312.016c0,13.048-40.512,32-104,32
			c-18.809,0.109-37.578-1.752-56-5.552v-47.656c1,0.2,2.072,0.336,3.088,0.528c1.776,0.328,3.584,0.624,5.4,0.92
			c3.2,0.52,6.4,0.984,9.744,1.4c1.88,0.232,3.744,0.472,5.648,0.664c3.552,0.376,7.152,0.656,10.792,0.904
			c1.696,0.112,3.368,0.264,5.08,0.352c5.36,0.272,10.768,0.44,16.248,0.44c3.2,0,6.472-0.072,9.72-0.176
			c0.872,0,1.736-0.056,2.6-0.096c2.853-0.112,5.704-0.264,8.552-0.456l1.264-0.08c3.2-0.232,6.4-0.528,9.6-0.864l2.4-0.264
			c2.64-0.304,5.256-0.64,7.848-1.008l1.872-0.256c3.072-0.464,6.099-0.976,9.08-1.536l2.04-0.4c2.448-0.48,4.864-0.992,7.2-1.544
			c0.688-0.152,1.376-0.304,2.056-0.472c2.84-0.68,5.6-1.408,8.328-2.192c0.496-0.144,0.968-0.296,1.456-0.448
			c2.256-0.672,4.456-1.384,6.592-2.12c0.672-0.24,1.344-0.464,2.008-0.712c2.488-0.896,4.904-1.84,7.2-2.832
			c0.264-0.12,0.504-0.248,0.8-0.36c2.04-0.904,4-1.856,5.84-2.832l1.728-0.928c1.88-1.048,3.688-2.12,5.368-3.248
			c0.136-0.096,0.296-0.184,0.44-0.28h0.048L464.032,312.016z"/>
	</g>
</g>
<g>
	<g>
		<rect x="48.032" y="352.016" width="208" height="16"/>
	</g>
</g>
<g>
	<g>
		<rect x="48.032" y="384.016" width="208" height="16"/>
	</g>
</g>
<g>
	<g>
		<rect x="96.032" y="320.016" width="160" height="16"/>
	</g>
</g>
<g>
	<g>
		<rect x="64.032" y="320.016" width="16" height="16"/>
	</g>
</g>
<g>
	<g>
		<path d="M248.032,216.016h-192c-4.418,0-8,3.582-8,8v64c0,4.418,3.582,8,8,8h192c4.418,0,8-3.582,8-8v-64
			C256.032,219.598,252.45,216.016,248.032,216.016z M240.032,280.016h-176v-48h176V280.016z"/>
	</g>
</g>
<g>
	<g>
		<rect x="208.032" y="248.016" width="16" height="16"/>
	</g>
</g>
<g>
	<g>
		<rect x="176.032" y="248.016" width="16" height="16"/>
	</g>
</g>
<g>
	<g>
		<rect x="144.032" y="248.016" width="16" height="16"/>
	</g>
</g>
<g>
</g>
<g>
</g>
<g>
</g>
<g>
</g>
<g>
</g>
<g>
</g>
<g>
</g>
<g>
</g>
<g>
</g>
<g>
</g>
<g>
</g>
<g>
</g>
<g>
</g>
<g>
</g>
<g>
</g>
</svg>
