<?xml version="1.0" encoding="iso-8859-1"?>
<!-- Generator: Adobe Illustrator 21.0.0, SVG Export Plug-In . SVG Version: 6.00 Build 0)  -->
<svg xmlns="http://www.w3.org/2000/svg" xmlns:xlink="http://www.w3.org/1999/xlink" version="1.1" id="Capa_1" x="0px" y="0px" viewBox="0 0 512 512" style="enable-background:new 0 0 512 512;" xml:space="preserve" width="100px" height="100px">
<g>
	<path d="M181,210v76c0,8.284,6.716,15,15,15h120c8.284,0,15-6.716,15-15v-76h15c6.067,0,11.536-3.655,13.858-9.26   c2.321-5.605,1.038-12.057-3.252-16.347l-90-90c-5.857-5.858-15.355-5.858-21.213,0l-90,90c-4.29,4.29-5.573,10.742-3.252,16.347   c2.322,5.605,7.792,9.26,13.858,9.26H181z M256,126.213l54.736,54.736C305.049,183.081,301,188.568,301,195v76h-30v-46   c0-8.284-6.716-15-15-15s-15,6.716-15,15v46h-30v-76c0-6.432-4.048-11.919-9.736-14.05L256,126.213z"/>
	<path d="M406,452h-45v-91h30.001C457.72,361,512,307.168,512,241c0-57.44-41.431-106.997-96.525-118.492   C396.46,50.918,331.008,0,256,0S115.541,50.918,96.526,122.508C41.431,134.003,0,183.556,0,241c0,66.168,54.28,120,121,120h30v91   h-45c-8.284,0-15,6.716-15,15s6.716,15,15,15h60c8.284,0,15-6.716,15-15V361h60v76c0,8.284,6.716,15,15,15s15-6.716,15-15v-76h60   v106c0,8.284,6.716,15,15,15h60c8.284,0,15-6.716,15-15S414.284,452,406,452z M30,241c0-45.493,35.394-85.203,80.577-90.405   c6.478-0.746,11.732-5.591,12.999-11.987C136.04,75.676,191.732,30,256,30s119.96,45.676,132.425,108.608   c1.267,6.396,6.521,11.242,12.998,11.987C446.606,155.797,482,195.507,482,241c0,49.626-40.822,90-90.999,90H121   C70.822,331,30,290.626,30,241z"/>
	<circle cx="256" cy="497" r="15"/>
	<circle cx="466" cy="467" r="15"/>
	<circle cx="46" cy="467" r="15"/>
</g>















</svg>
