<?xml version="1.0" encoding="iso-8859-1"?>
<!-- Generator: Adobe Illustrator 19.0.0, SVG Export Plug-In . SVG Version: 6.00 Build 0)  -->
<svg version="1.1" id="Capa_1" xmlns="http://www.w3.org/2000/svg" height="100px" width="100px" xmlns:xlink="http://www.w3.org/1999/xlink" x="0px" y="0px"
	 viewBox="0 0 512 512" style="enable-background:new 0 0 512 512;" xml:space="preserve">
<g>
	<g>
		<g>
			<path d="M398.566,275.567c-0.078-0.078-0.184-0.101-0.264-0.176c-0.727-0.704-1.575-1.271-2.503-1.674l-0.03-0.007
				c-0.073-0.03-0.151-0.028-0.225-0.056c-0.866-0.321-1.779-0.499-2.702-0.526c-0.278,0-0.556,0.014-0.833,0.042
				c-0.738,0.044-1.466,0.186-2.167,0.422c-0.269,0.081-0.534,0.175-0.794,0.283c-0.946,0.404-1.81,0.978-2.549,1.693l-25.6,25.6
				c-3.29,3.339-3.271,8.707,0.044,12.022c3.315,3.315,8.683,3.334,12.022,0.044L384,302.2v56.2
				c-0.001,4.712-3.821,8.532-8.533,8.533H238.933v-68.267c0-28.012-60.1-42.667-119.467-42.667S0,270.654,0,298.667v170.667
				C0,497.346,60.1,512,119.467,512s119.467-14.654,119.467-42.667V384h136.533c14.137-0.004,25.596-11.463,25.6-25.6v-56.2
				l11.034,11.034c3.338,3.296,8.711,3.279,12.029-0.038c3.317-3.317,3.334-8.691,0.038-12.029L398.566,275.567z M221.867,469.333
				c0,9.025-38.879,25.6-102.4,25.6s-102.4-16.575-102.4-25.6v-11.104c22.04,12.942,62.349,19.638,102.4,19.638
				c40.052,0,80.36-6.696,102.4-19.638V469.333z M221.867,435.2c0,9.025-38.879,25.6-102.4,25.6s-102.4-16.575-102.4-25.6v-11.104
				c22.04,12.942,62.349,19.638,102.4,19.638c40.052,0,80.36-6.696,102.4-19.638V435.2z M221.867,401.067
				c0,9.025-38.879,25.6-102.4,25.6s-102.4-16.575-102.4-25.6v-11.104c22.04,12.942,62.349,19.638,102.4,19.638
				c40.052,0,80.36-6.696,102.4-19.638V401.067z M221.867,366.933c0,9.025-38.879,25.6-102.4,25.6s-102.4-16.575-102.4-25.6v-11.104
				c22.04,12.942,62.349,19.638,102.4,19.638c40.052,0,80.36-6.696,102.4-19.638V366.933z M221.867,332.8
				c0,9.025-38.879,25.6-102.4,25.6s-102.4-16.575-102.4-25.6v-11.104c22.04,12.942,62.349,19.638,102.4,19.638
				c40.052,0,80.36-6.696,102.4-19.638V332.8z M119.467,324.267c-63.521,0-102.4-16.575-102.4-25.6s38.879-25.6,102.4-25.6
				s102.4,16.575,102.4,25.6S182.988,324.267,119.467,324.267z"/>
			<path d="M392.533,0c-59.366,0-119.467,14.654-119.467,42.667V128H136.533c-14.137,0.004-25.596,11.463-25.6,25.6v56.2
				L99.9,198.766c-3.338-3.296-8.711-3.279-12.029,0.038c-3.317,3.317-3.334,8.69-0.038,12.029l25.6,25.6
				c0.078,0.078,0.184,0.101,0.264,0.175c0.727,0.704,1.575,1.271,2.503,1.674l0.027,0.005c3.182,1.309,6.839,0.577,9.273-1.855
				l25.6-25.6c3.281-3.341,3.256-8.701-0.054-12.012s-8.671-3.335-12.012-0.054L128,209.8v-56.2
				c0.001-4.712,3.821-8.532,8.533-8.533h136.533v68.267c0,28.012,60.1,42.667,119.467,42.667C451.9,256,512,241.346,512,213.333
				V42.667C512,14.654,451.9,0,392.533,0z M494.933,213.333c0,9.025-38.879,25.6-102.4,25.6s-102.4-16.575-102.4-25.6v-11.104
				c22.04,12.942,62.348,19.638,102.4,19.638c40.052,0,80.36-6.696,102.4-19.638V213.333z M494.933,179.2
				c0,9.025-38.879,25.6-102.4,25.6s-102.4-16.575-102.4-25.6v-11.104c22.04,12.942,62.348,19.638,102.4,19.638
				c40.052,0,80.36-6.696,102.4-19.638V179.2z M494.933,145.067c0,9.025-38.879,25.6-102.4,25.6s-102.4-16.575-102.4-25.6v-11.104
				c22.04,12.942,62.348,19.638,102.4,19.638c40.052,0,80.36-6.696,102.4-19.638V145.067z M494.933,110.933
				c0,9.025-38.879,25.6-102.4,25.6s-102.4-16.575-102.4-25.6V99.829c22.04,12.942,62.348,19.638,102.4,19.638
				c40.052,0,80.36-6.696,102.4-19.638V110.933z M494.933,76.8c0,9.025-38.879,25.6-102.4,25.6s-102.4-16.575-102.4-25.6V65.696
				c22.04,12.942,62.348,19.637,102.4,19.637c40.052,0,80.36-6.696,102.4-19.637V76.8z M392.533,68.267
				c-63.521,0-102.4-16.575-102.4-25.6s38.879-25.6,102.4-25.6s102.4,16.575,102.4,25.6S456.054,68.267,392.533,68.267z"/>
		</g>
	</g>
</g>
<g>
</g>
<g>
</g>
<g>
</g>
<g>
</g>
<g>
</g>
<g>
</g>
<g>
</g>
<g>
</g>
<g>
</g>
<g>
</g>
<g>
</g>
<g>
</g>
<g>
</g>
<g>
</g>
<g>
</g>
</svg>
