<svg id="Capa_1" enable-background="new 0 0 512 512" height="512" viewBox="0 0 512 512" width="512" xmlns="http://www.w3.org/2000/svg"><g><path d="m465.438 49.722h-418.875c-25.675 0-46.563 20.887-46.563 46.562v319.432c0 25.675 20.888 46.563 46.563 46.563h418.875c25.675 0 46.563-20.888 46.563-46.563 0-8.892 0-311.11 0-319.432-.001-25.675-20.889-46.562-46.563-46.562zm-445.438 46.562c0-14.646 11.916-26.563 26.563-26.563h418.875c14.646 0 26.563 11.916 26.563 26.563v67.524h-472.001zm91.444 345.994v-8.648h14.222c5.523 0 10-4.478 10-10s-4.477-10-10-10h-14.222v-12.434h14.222c5.523 0 10-4.478 10-10s-4.477-10-10-10h-14.222v-12.435h14.222c5.523 0 10-4.478 10-10s-4.477-10-10-10h-14.222v-12.231c0-1.481 1.206-2.688 2.688-2.688h36.366c1.482 0 2.688 1.206 2.688 2.688v105.748zm162.98-85.817h-8.424v-49.871c0-5.522-4.477-10-10-10s-10 4.478-10 10v49.871h-8.085l-29.308-70.318c-2.194-5.264-.86-11.396 3.317-15.261 14.01-12.954 31.64-31.135 44.248-50.627 12.566 19.493 30.091 37.682 44.01 50.643 4.133 3.848 5.458 9.949 3.298 15.182zm-51.333 85.817v-59.667c0-3.392 2.759-6.15 6.15-6.15h53.518c3.391 0 6.15 2.759 6.15 6.15v59.667zm143.384-108.858c0-1.651 1.344-2.995 2.996-2.995h6.877c1.651 0 2.995 1.344 2.995 2.995v7.442h-12.868zm-9.558 108.858v-79.604c0-.999.813-1.812 1.812-1.812h28.359c.999 0 1.812.813 1.812 1.812v79.604zm108.521 0h-56.538v-79.604c0-7.487-3.793-14.104-9.557-18.033v-11.221c0-10.4-6.942-19.205-16.434-22.036v-24.521c0-5.522-4.477-10-10-10s-10 4.478-10 10v24.521c-9.492 2.832-16.434 11.636-16.434 22.036v11.221c-5.764 3.929-9.557 10.546-9.557 18.033v79.604h-28.009v-59.667c0-10.063-5.718-18.812-14.072-23.183l27.13-65.717c5.326-12.901 2.048-27.952-8.155-37.452-13.454-12.528-37.651-37.072-48.55-60.695-3.567-7.734-14.593-7.733-18.16 0-10.886 23.597-35.219 48.117-48.756 60.634-10.313 9.537-13.608 24.662-8.2 37.638l27.281 65.458c-8.497 4.323-14.336 13.149-14.336 23.318v59.667h-29.905v-105.749c0-12.51-10.178-22.688-22.688-22.688h-36.366c-12.51 0-22.688 10.178-22.688 22.688v105.748h-44.881c-14.647 0-26.563-11.916-26.563-26.562v-231.907h472v231.907c0 14.646-11.916 26.562-26.562 26.562z"/><path d="m71.06 89.58c-16.677 0-30.245 13.567-30.245 30.244s13.568 30.245 30.245 30.245 30.245-13.568 30.245-30.245-13.568-30.244-30.245-30.244zm0 40.489c-5.649 0-10.245-4.596-10.245-10.245 0-5.648 4.596-10.244 10.245-10.244s10.245 4.596 10.245 10.244c0 5.65-4.596 10.245-10.245 10.245z"/><path d="m152.561 89.58c-16.677 0-30.245 13.567-30.245 30.244s13.568 30.245 30.245 30.245 30.245-13.568 30.245-30.245-13.569-30.244-30.245-30.244zm0 40.489c-5.649 0-10.245-4.596-10.245-10.245 0-5.648 4.596-10.244 10.245-10.244s10.245 4.596 10.245 10.244c-.001 5.65-4.597 10.245-10.245 10.245z"/><path d="m234.061 89.58c-16.677 0-30.245 13.567-30.245 30.244s13.568 30.245 30.245 30.245 30.245-13.568 30.245-30.245-13.568-30.244-30.245-30.244zm0 40.489c-5.649 0-10.245-4.596-10.245-10.245 0-5.648 4.596-10.244 10.245-10.244s10.245 4.596 10.245 10.244c0 5.65-4.596 10.245-10.245 10.245z"/><path d="m254.05 263.969c-5.524 1.121-8.925 6.457-7.85 11.761.981 4.814 5.147 8.05 9.8 8.05 5.439 0 10-4.425 10-10 0-6.399-5.899-11.03-11.95-9.811z"/></g></svg>