<svg xmlns="http://www.w3.org/2000/svg" width="80" height="80" viewBox="0 0 41 42">
    <g fill="none" fill-rule="evenodd">
        <path fill="#E5E7FD" d="M6.485 4.065c0-.913-.753-1.652-1.682-1.652-.929 0-1.682.74-1.682 1.652v33.87c0 .913.753 1.652 1.682 1.652.93 0 1.682-.74 1.682-1.652V4.065z"/>
        <path stroke="#5b5b98" stroke-linecap="round" stroke-linejoin="round" stroke-width="3" d="M31.586 28.6c2.325 0 4.21 1.851 4.21 4.136s-1.885 4.136-4.21 4.136-4.21-1.851-4.21-4.136 1.885-4.137 4.21-4.137zM31.586 28.6v-2.758M34.563 29.811l1.986-1.95M35.796 32.736h2.807M34.563 35.66l1.986 1.951M31.586 36.872v2.758M28.61 35.66l-1.987 1.951M27.375 32.736h-2.807M28.61 29.811l-1.987-1.95"/>
        <path stroke="#5b6fe6" stroke-linecap="round" stroke-linejoin="round" stroke-width="3" d="M19.099 39.518H5.629c-1.772 0-3.209-1.41-3.209-3.151V5.565c0-1.741 1.437-3.152 3.209-3.152h27.92c1.773 0 3.209 1.411 3.209 3.152v14.609M24.74 10.846h3.433M24.74 17.592h3.433M11.005 24.339H21.83M11.005 31.085h6.867"/>
        <path stroke="#5b6fe6" stroke-linecap="round" stroke-linejoin="round" stroke-width="3" d="M12.443 10.846h3.992c.793 0 1.437.633 1.437 1.413v3.921c0 .78-.644 1.413-1.437 1.413h-3.992a1.426 1.426 0 0 1-1.438-1.413V12.26c0-.78.644-1.413 1.438-1.413z"/>
    </g>
</svg>
 