<svg xmlns="http://www.w3.org/2000/svg" width="80" height="80" viewBox="0 0 38 42">
    <g fill="none" fill-rule="evenodd">
        <path fill="#E5E7FD" d="M10.576 2.532h-.84c-1.395 0-2.739 1.37-2.739 2.782v7.137c0 1.411 1.344 2.748 2.74 2.748h.84V2.532z"/>
        <path stroke="#5b6fe6" stroke-linecap="round" stroke-linejoin="round" stroke-width="3" d="M8.842 2.452h21.239c1.395 0 2.527 1.145 2.527 2.557v7.136c0 1.412-1.132 2.557-2.527 2.557H8.842c-1.396 0-2.528-1.145-2.528-2.557V5.01c0-1.412 1.132-2.557 2.528-2.557zM2.447 13.964v3.866c0 .864.693 1.564 1.547 1.564h13.92c.855 0 1.548.7 1.548 1.563v3.91M18.548 24.868h1.827c1.203 0 2.18.987 2.18 2.204v10.45c0 1.218-.977 2.205-2.18 2.205h-1.827c-1.204 0-2.18-.987-2.18-2.205v-10.45c0-1.217.976-2.204 2.18-2.204z"/>
        <path stroke="#5b5b98" stroke-linecap="round" stroke-linejoin="round" stroke-width="3" d="M29.515 24.988c0-1.25 1.618-3.964 2.514-5.37a.683.683 0 0 1 1.16 0c.896 1.406 2.513 4.12 2.513 5.37 0 1.727-1.385 3.128-3.094 3.128-1.708 0-3.093-1.4-3.093-3.128z"/>
    </g>
</svg>
 