<svg xmlns="http://www.w3.org/2000/svg" width="80" height="80" viewBox="0 0 38 38">
    <g fill="none" fill-rule="evenodd">
        <path fill="#E5E7FD" d="M14.747 6.68c3.366-1.72 5.13-2.93 8.502-2.139C19.18 2.485 14.134 2.47 9.82 4.96 3.104 8.837.728 17.299 4.515 23.858c1.941 3.362 5.128 5.562 8.675 6.394-2.27-1.147-2.394-2.324-3.75-4.673-3.297-9.107-1.529-15.406 5.307-18.899z"/>
        <path stroke="#5b6fe6" stroke-linecap="round" stroke-linejoin="round" stroke-width="3" d="M26.992 27.84a14.726 14.726 0 0 1-10.015 3.905c-8.144 0-14.746-6.576-14.746-14.687S8.833 2.371 16.977 2.371a14.753 14.753 0 0 1 13.212 8.155 14.576 14.576 0 0 1 1.535 6.532c0 2.117-.45 4.129-1.259 5.947"/>
        <path stroke="#5b5b98" stroke-linecap="round" stroke-linejoin="round" stroke-width="3" d="M14.028 19.506c0 1.352 1.1 2.448 2.458 2.448h.983a2.452 2.452 0 0 0 2.458-2.448c0-3.427-5.899-1.468-5.899-4.896 0-1.352 1.1-2.448 2.458-2.448h.983a2.452 2.452 0 0 1 2.458 2.448M16.977 10.204v1.958M16.977 21.954v1.958M36.64 17.062c0 10.811-8.8 19.575-19.655 19.575"/>
    </g>
</svg>
 