<svg id="Capa_1" enable-background="new 0 0 512 512" height="512" viewBox="0 0 512 512" width="512" xmlns="http://www.w3.org/2000/svg"><path d="m256 96.976c-35.915 0-69.807 11.684-98.013 33.787-3.26 2.555-3.832 7.27-1.277 10.529 2.556 3.26 7.271 3.831 10.529 1.277 25.54-20.015 56.233-30.594 88.761-30.594 79.416 0 144.024 64.609 144.024 144.024 0 40.389-16.718 76.941-43.589 103.119v-36.448c0-26.416-21.491-47.906-47.907-47.906h-24.825v-22.806c0-.436-.045-.861-.116-1.276 12.28-8.682 20.32-22.98 20.32-39.13v-40.406c0-20.846-16.959-37.805-37.805-37.805h-20.203c-20.846 0-37.805 16.959-37.805 37.805v40.406c0 16.15 8.041 30.448 20.32 39.13-.071.416-.116.84-.116 1.276v22.806h-24.825c-26.416 0-47.907 21.49-47.907 47.906v36.448c-26.871-26.178-43.589-62.73-43.589-103.119 0-32.994 10.854-64.033 31.387-89.764 2.583-3.237 2.054-7.956-1.184-10.54-3.238-2.583-7.957-2.054-10.541 1.185-22.678 28.416-34.663 62.69-34.663 99.12 0 87.687 71.338 159.024 159.024 159.024s159.024-71.337 159.024-159.024-71.337-159.024-159.024-159.024zm-32.907 74.17c0-12.574 10.23-22.805 22.805-22.805h20.203c12.575 0 22.805 10.23 22.805 22.805v11.981c-4.41-.804-10.03-2.498-14.609-6.065-1.962-1.529-4.556-1.985-6.922-1.217-14.09 4.569-28.954 7.2-44.282 7.847zm0 27.554c15.62-.606 30.824-3.107 45.332-7.468 7.099 4.437 14.885 6.296 20.482 7.072v13.249c0 18.145-14.762 32.906-32.907 32.906s-32.907-14.762-32.907-32.906zm20.204 59.036c4.049 1.115 8.305 1.723 12.703 1.723s8.655-.608 12.703-1.723v17.028h-25.406zm-32.325 135.071v-49.933c0-4.143-3.358-7.5-7.5-7.5s-7.5 3.357-7.5 7.5v44.028c-9.019-4.152-17.538-9.209-25.442-15.055.021-.227.035-.456.035-.689v-48.487c0-18.145 14.762-32.906 32.907-32.906h105.057c18.145 0 32.907 14.762 32.907 32.906v48.487c0 .233.014.462.035.689-7.903 5.846-16.422 10.903-25.442 15.055v-44.028c0-4.143-3.358-7.5-7.5-7.5s-7.5 3.357-7.5 7.5v49.933c-14.173 4.677-29.309 7.217-45.028 7.217s-30.856-2.54-45.029-7.217z"/><path d="m440.479 121.838c1.819-4.423 2.83-9.261 2.83-14.332 0-20.846-16.959-37.805-37.805-37.805-5.135 0-10.032 1.033-14.5 2.896-16.878-21.797-36.356-39.124-57.982-51.541-24.336-13.971-50.25-21.056-77.022-21.056s-52.686 7.085-77.022 21.057c-21.626 12.417-41.104 29.743-57.982 51.541-4.468-1.863-9.365-2.896-14.5-2.896-20.846 0-37.805 16.959-37.805 37.805 0 5.071 1.011 9.909 2.83 14.332-46.175 36.177-71.521 83.602-71.521 134.161 0 26.772 7.084 52.686 21.057 77.021 12.417 21.626 29.743 41.104 51.54 57.982-1.863 4.468-2.896 9.365-2.896 14.5 0 20.846 16.959 37.806 37.805 37.806 5.071 0 9.909-1.011 14.332-2.83 36.178 46.174 83.602 71.521 134.162 71.521 50.559 0 97.984-25.347 134.162-71.52 4.423 1.819 9.261 2.83 14.332 2.83 20.846 0 37.805-16.96 37.805-37.806 0-5.135-1.033-10.032-2.896-14.5 21.797-16.878 39.124-36.356 51.54-57.982 13.973-24.336 21.057-50.25 21.057-77.022 0-50.559-25.346-97.984-71.521-134.162zm-35.985 245.861c-20.846 0-37.805 16.959-37.805 37.805 0 2.939.348 5.796.986 8.544-34.294 13.308-72.742 20.322-111.675 20.322s-77.381-7.014-111.675-20.322c.638-2.748.986-5.605.986-8.544 0-20.846-16.959-37.805-37.805-37.805-3.138 0-6.185.391-9.103 1.115-13.604-34.56-20.773-73.399-20.773-112.814 0-38.934 7.014-77.382 20.323-111.674 2.748.637 5.605.986 8.543.986 20.846 0 37.805-16.96 37.805-37.806 0-3.138-.391-6.186-1.115-9.103 34.562-13.603 73.401-20.773 112.814-20.773s78.252 7.17 112.814 20.773c-.724 2.917-1.115 5.965-1.115 9.103 0 20.846 16.959 37.806 37.805 37.806 2.939 0 5.796-.348 8.543-.986 13.309 34.292 20.323 72.74 20.323 111.674 0 39.415-7.169 78.254-20.773 112.814-2.918-.724-5.965-1.115-9.103-1.115zm23.815-260.193c0 12.575-10.23 22.806-22.805 22.806s-22.805-10.23-22.805-22.806c0-12.574 10.23-22.805 22.805-22.805s22.805 10.231 22.805 22.805zm-172.309-92.506c45.972 0 89.255 23.395 122.553 66.029-1.175 1.196-2.275 2.466-3.284 3.809-36.545-14.536-77.626-22.208-119.269-22.208s-82.724 7.673-119.269 22.208c-1.009-1.343-2.109-2.613-3.284-3.809 33.298-42.634 76.581-66.029 122.553-66.029zm-149.504 69.701c12.575 0 22.805 10.23 22.805 22.805s-10.23 22.806-22.805 22.806-22.805-10.23-22.805-22.806c0-12.574 10.23-22.805 22.805-22.805zm-91.496 171.299c0-45.511 22.994-88.473 64.899-121.657 1.367 1.355 2.839 2.602 4.399 3.738-14.183 36.221-21.668 76.835-21.668 117.919 0 41.645 7.673 82.726 22.207 119.27-1.342 1.009-2.612 2.109-3.808 3.283-42.634-33.299-66.029-76.582-66.029-122.553zm69.701 149.504c0-12.574 10.23-22.805 22.805-22.805s22.805 10.23 22.805 22.805-10.23 22.806-22.805 22.806-22.805-10.231-22.805-22.806zm171.299 91.496c-45.512 0-88.473-22.994-121.657-64.899 1.355-1.367 2.602-2.839 3.737-4.398 36.222 14.182 76.836 21.668 117.92 21.668s81.698-7.485 117.92-21.668c1.135 1.559 2.382 3.031 3.737 4.399-33.184 41.904-76.146 64.898-121.657 64.898zm148.494-68.69c-12.575 0-22.805-10.23-22.805-22.806 0-12.574 10.23-22.805 22.805-22.805s22.805 10.23 22.805 22.805-10.231 22.806-22.805 22.806zm26.477-49.757c-1.196-1.175-2.466-2.275-3.808-3.284 14.535-36.544 22.208-77.625 22.208-119.27 0-41.084-7.485-81.698-21.668-117.919 1.56-1.135 3.032-2.383 4.399-3.738 41.904 33.185 64.898 76.147 64.898 121.658 0 45.971-23.395 89.254-66.029 122.553z"/></svg>